PathFileType	4	(X/Y/Z)	 s11c0201.trc
DataRate	CameraRate	NumFrames	NumMarkers	Units	OrigDataRate	OrigDataStartFrame	OrigNumFrames
200	200	4	48	mm	200	251	2000
Frame#	Time	racr			lacr			c7			jug			rlel			rdr			llel			ldr			s2			lic			ric			lasi			rasi			rpsi			lpsi			rgt			lgt			rth1			rth2			rth3			rth4			rlfc			rmfc			rsh1			rsh2			rsh3			rsh4			rlmal			rcal			rtoe			rmt5			lth1			lth2			lth4			lth3			llfc			lmfc			llmal			lcal			lmt5			lsh1			lsh2			lsh3			lsh4			ltoe			SBIKE			LBIKE			RBIKE			
		X1	Y1	Z1	X2	Y2	Z2	X3	Y3	Z3	X4	Y4	Z4	X5	Y5	Z5	X6	Y6	Z6	X7	Y7	Z7	X8	Y8	Z8	X9	Y9	Z9	X10	Y10	Z10	X11	Y11	Z11	X12	Y12	Z12	X13	Y13	Z13	X14	Y14	Z14	X15	Y15	Z15	X16	Y16	Z16	X17	Y17	Z17	X18	Y18	Z18	X19	Y19	Z19	X20	Y20	Z20	X21	Y21	Z21	X22	Y22	Z22	X23	Y23	Z23	X24	Y24	Z24	X25	Y25	Z25	X26	Y26	Z26	X27	Y27	Z27	X28	Y28	Z28	X29	Y29	Z29	X30	Y30	Z30	X31	Y31	Z31	X32	Y32	Z32	X33	Y33	Z33	X34	Y34	Z34	X35	Y35	Z35	X36	Y36	Z36	X37	Y37	Z37	X38	Y38	Z38	X39	Y39	Z39	X40	Y40	Z40	X41	Y41	Z41	X42	Y42	Z42	X43	Y43	Z43	X44	Y44	Z44	X45	Y45	Z45	X46	Y46	Z46	X47	Y47	Z47	X48	Y48	Z48	
251	1.2550	488.455549	1368.143150	-37.804428	537.734364	1327.490749	-342.510555	458.063961	1441.571940	-199.873584	461.140569	1257.681721	-193.721844	522.674553	1117.625314	87.841391	753.434377	976.914057	-13.467370	514.235205	1116.114341	-567.771959	768.409787	962.588811	-473.379551	-114.132886	1231.419484	-289.793590	73.001398	1213.076121	-409.158488	89.227456	1227.410881	-53.101633	137.636201	1155.509587	-433.472680	119.691018	1161.652319	-95.070063	-63.869240	1300.457412	-221.667524	-63.750625	1294.232286	-316.713973	59.444519	1090.884826	-51.194926	24.580921	1099.773715	-475.527185	192.751610	1004.075338	-94.226821	256.447722	963.771484	-65.461144	307.861612	894.196370	-79.697165	278.177173	992.279647	-75.165474	388.539721	821.056627	-99.251815	382.916737	795.073960	-224.102384	361.663725	660.784856	-74.805163	365.547292	574.178190	-89.217624	328.440020	494.845540	-83.588347	385.729754	571.281824	-123.380269	286.465611	362.367266	-85.699732	221.991736	328.488983	-129.776297	509.261705	352.076873	-130.908575	447.171120	312.570333	-59.749332	145.949587	1006.842595	-484.773140	223.724369	971.309675	-477.356405	246.923351	997.782739	-466.768750	275.658360	897.705347	-474.717739	364.748115	794.527682	-444.579036	371.899171	789.296846	-317.064858	61.178819	499.384548	-411.981603	-8.307450	497.443644	-378.685451	122.295547	333.916718	-441.747855	283.264439	699.918213	-462.772617	241.930658	628.202392	-441.215652	167.628835	580.405279	-437.216450	264.251894	612.637200	-413.532084	209.574202	291.673064	-374.257934	-204.152572	957.816235	-262.974415	1.447351	82.443501	-461.077770	-15.222484	81.019976	-62.481014	
252	1.2600	490.293017	1368.521482	-38.618042	537.523398	1329.782993	-345.112036	458.650169	1442.985730	-200.751726	463.063580	1259.041612	-195.658474	523.191174	1118.283577	88.333290	753.218347	976.978628	-14.093475	513.307525	1116.177702	-567.879574	768.192464	962.393254	-473.650617	-113.219209	1230.902936	-288.188543	73.134827	1214.278385	-408.241530	90.509580	1226.313982	-52.027298	137.968478	1156.558768	-432.686637	120.963179	1160.436473	-94.243859	-62.499280	1299.453583	-220.109389	-63.857671	1294.150574	-314.913781	60.541002	1089.108306	-51.064738	26.127351	1101.094683	-475.189321	192.279538	999.257554	-94.182694	255.516077	959.030313	-65.376155	305.687231	888.522439	-79.724835	277.691409	987.172478	-75.241644	384.757550	814.365765	-99.242771	378.882468	788.579395	-223.675423	358.338662	653.877946	-74.910953	362.969473	567.214068	-89.547215	326.501293	487.601064	-83.993652	383.048054	564.656288	-123.560237	285.331821	354.825885	-85.957560	221.062831	320.965493	-129.964489	508.437593	345.058370	-130.617155	446.182820	305.165658	-59.818543	148.515448	1009.567533	-484.304704	226.681904	974.992280	-476.803142	249.526319	1001.793388	-466.115337	279.546439	902.119702	-474.320522	369.838524	800.202839	-444.416046	376.332868	794.941114	-316.690112	64.584767	506.859165	-412.486026	-4.815504	505.923736	-379.151985	123.765574	340.619421	-441.695664	288.103533	705.987210	-462.731212	246.822579	635.114123	-441.918278	171.632207	587.243619	-437.497100	268.324991	618.875661	-413.446442	210.302438	297.361742	-373.934099	-204.103290	957.847091	-262.956503	1.448685	82.444832	-461.078454	-15.215556	81.021094	-62.475926	
253	1.2650	491.970699	1368.905209	-39.428535	537.219017	1332.246778	-347.686268	459.149768	1444.572685	-201.817475	464.904809	1260.829460	-197.657853	523.798762	1118.893123	88.826288	753.015015	977.029870	-14.849237	512.676505	1116.385000	-568.087381	768.188331	962.335836	-473.959976	-112.248698	1230.305871	-286.978620	73.854499	1215.503705	-407.745116	92.050906	1225.134359	-51.365038	138.343556	1157.663277	-431.868910	122.325212	1159.240640	-93.537096	-61.546242	1298.573037	-218.745268	-63.364632	1293.992255	-313.568857	61.589257	1087.291592	-50.940431	27.605172	1102.243929	-474.719183	191.787548	993.990853	-94.350431	254.382830	954.131404	-65.218558	303.259845	882.900241	-79.892848	277.086778	981.561921	-75.126411	380.743594	807.551034	-99.490658	374.787115	782.009644	-223.863321	354.622819	646.992252	-74.982898	359.869126	560.502612	-89.655602	324.145091	480.516594	-84.221576	380.225476	557.961987	-123.690542	283.937660	347.475764	-86.113407	219.865994	313.468585	-130.184418	507.150177	337.563593	-130.809492	445.003081	297.919073	-59.955563	151.052427	1012.273801	-483.821853	229.652832	978.722258	-476.266364	252.109332	1005.825872	-465.440978	283.517663	906.529623	-473.890630	374.993107	805.988254	-444.179628	380.884200	800.379732	-316.424703	68.214439	514.663756	-413.418192	-1.069493	514.297222	-379.448383	125.396064	347.355513	-441.762300	292.966948	712.296669	-462.585511	251.193886	641.794883	-441.834063	175.776872	594.169143	-437.719781	272.616679	625.316924	-413.478711	211.393958	303.016295	-373.910850	-204.048325	957.894973	-262.850587	1.513925	82.367003	-461.155503	-15.207367	81.006523	-62.472240	
254	1.2700	493.631313	1369.177882	-40.096072	536.772712	1334.854770	-350.287606	459.524407	1446.280416	-202.971538	466.773583	1262.472226	-199.812911	524.537842	1119.563285	89.324622	752.848284	977.081772	-15.584225	512.089841	1116.604178	-568.296768	768.306364	962.396166	-474.004002	-111.345819	1229.603959	-285.539043	74.359395	1216.665018	-407.205609	93.513739	1224.035006	-50.750308	138.580421	1158.553530	-430.819765	123.690240	1157.985811	-92.835271	-60.670325	1297.769444	-217.282810	-62.970989	1293.643688	-312.145007	62.651482	1085.452346	-50.712040	29.096596	1103.480295	-474.322191	191.082201	989.153535	-94.676686	253.123834	949.258462	-65.101051	300.453994	876.568529	-80.719265	276.196226	976.344167	-74.889749	376.234305	800.969785	-99.492066	368.612035	774.224418	-221.956543	350.652811	640.082868	-75.059855	356.547486	553.632995	-89.627885	321.382904	473.395104	-84.351057	376.955770	551.431072	-123.633897	282.321290	340.083055	-86.125435	218.202085	306.112663	-130.292183	505.378719	330.043614	-131.185977	443.435143	290.682623	-60.081992	153.516144	1014.990380	-483.316566	232.556617	982.555877	-475.671046	254.635508	1009.924793	-464.793616	287.520173	911.119676	-473.519288	380.168084	811.988235	-443.898995	383.366498	805.512361	-316.973691	71.913440	521.932088	-413.420829	2.896813	522.573558	-379.574086	127.284768	354.223171	-441.863552	297.871232	718.735855	-462.463224	255.218795	647.767594	-441.243950	180.116636	601.122487	-437.923040	277.050682	631.824952	-413.489521	212.854346	308.725178	-373.956364	-203.978376	957.928308	-262.825889	1.521510	82.362073	-461.159227	-15.200413	81.008102	-62.464721	
